<svg width="93" height="110" viewBox="0 0 93 110" fill="none" xmlns="http://www.w3.org/2000/svg">
<path d="M26.181 0L32.9819 9.52036H48.327L36.5939 0H26.181ZM7.14027 4.76018V19.0407C7.14027 26.6761 27.8769 28.1892 35.1528 28.4867L23.8009 45.2217H34.2138L51.9901 28.5611H73.7828H78.543C78.543 28.5611 83.3032 26.181 78.543 21.4208C73.7828 16.6606 69.0226 14.2805 59.5023 14.2805H54.1889H36.3801H16.6606L11.9005 4.76018H7.14027ZM7.33551 52.362C3.28936 52.362 0 55.6513 0 59.6975V95.0084C0 99.0545 3.28936 102.344 7.33551 102.344H12.5559C14.0344 106.491 17.9633 109.484 22.6109 109.484C27.2585 109.484 31.1873 106.491 32.6658 102.344H57.7776C59.2561 106.491 63.185 109.484 67.8326 109.484C72.4802 109.484 76.4091 106.491 77.8875 102.344H85.488C89.5342 102.344 92.8235 99.0545 92.8235 95.0084V81.9411C92.8235 80.2679 92.3184 78.6565 91.3592 77.2832L78.0502 58.2518C75.5107 54.9482 70.4149 52.362 66.4473 52.362H7.33551ZM66.6425 64.2624H76.4511L84.7628 76.1629H66.6425V64.2624ZM22.6109 92.8235C25.893 92.8235 28.5611 95.4916 28.5611 98.7738C28.5611 99.0308 28.5157 99.2819 28.4681 99.6152C28.4655 99.6325 28.475 99.649 28.4728 99.6663C28.0387 102.523 25.5877 104.724 22.6109 104.724C19.5927 104.724 17.1221 102.46 16.7397 99.5454C16.7388 99.5393 16.7406 99.533 16.7397 99.5268C16.7063 99.2793 16.6606 99.0308 16.6606 98.7738C16.6606 98.3635 16.7021 97.9615 16.7815 97.5744C17.3371 94.8649 19.739 92.8235 22.6109 92.8235ZM67.8326 92.8235C71.1147 92.8235 73.7828 95.4916 73.7828 98.7738C73.7828 99.0308 73.7374 99.2819 73.6898 99.6152C73.6872 99.6325 73.6967 99.649 73.6945 99.6663C73.2605 102.523 70.8095 104.724 67.8326 104.724C64.8144 104.724 62.3439 102.46 61.9614 99.5454C61.9605 99.5393 61.9623 99.533 61.9614 99.5268C61.9281 99.2793 61.8824 99.0308 61.8824 98.7738C61.8824 98.3635 61.9239 97.9615 62.0032 97.5744C62.5588 94.8649 64.9607 92.8235 67.8326 92.8235Z" fill="#043175"/>
</svg>
