<svg width="93" height="75" viewBox="0 0 93 75" fill="none" xmlns="http://www.w3.org/2000/svg">
<path d="M92.8235 13.9231V55.6924C92.8235 58.9876 91.0599 62.0043 88.1825 63.675V70.7758C88.1825 72.6786 86.6045 74.2566 84.7017 74.2566H82.3812C80.4784 74.2566 78.9004 72.6786 78.9004 70.7758V64.9745H46.4132V70.7758C46.4132 72.6786 44.8352 74.2566 42.9324 74.2566H40.6119C38.709 74.2566 37.1311 72.6786 37.1311 70.7758V63.675C34.3 62.0043 32.49 58.9876 32.49 55.6924V13.9231C32.49 0 46.4132 0 62.6568 0C78.9004 0 92.8235 0 92.8235 13.9231ZM51.0542 51.0514C51.0542 48.4988 48.9657 46.4104 46.4132 46.4104C43.8606 46.4104 41.7721 48.4988 41.7721 51.0514C41.7721 53.604 43.8606 55.6924 46.4132 55.6924C48.9657 55.6924 51.0542 53.604 51.0542 51.0514ZM83.5415 51.0514C83.5415 48.4988 81.453 46.4104 78.9004 46.4104C76.3478 46.4104 74.2594 48.4988 74.2594 51.0514C74.2594 53.604 76.3478 55.6924 78.9004 55.6924C81.453 55.6924 83.5415 53.604 83.5415 51.0514ZM83.5415 13.9231H41.7721V32.4873H83.5415V13.9231ZM23.208 25.5257C23.0687 19.1211 17.778 13.9231 11.3733 14.1552C4.96869 14.2944 -0.13645 19.5852 0.0027816 25.9898C0.142013 31.4198 3.99407 36.0609 9.28486 37.1283V74.2566H13.9259V37.1283C19.4023 36.0145 23.208 31.1414 23.208 25.5257Z" fill="#043175"/>
</svg>
