<svg width="93" height="93" viewBox="0 0 93 93" fill="none" xmlns="http://www.w3.org/2000/svg">
<path d="M59.6113 83.5412H20.8853C14.4851 83.5412 9.28235 78.3384 9.28235 71.9382C9.28235 65.5381 14.4851 60.3353 20.8853 60.3353H53.3735C62.331 60.3353 69.6176 53.0486 69.6176 44.0912C69.6176 35.1337 62.331 27.8471 53.3735 27.8471H30.8128C28.9981 31.4254 26.7842 34.5443 24.5286 37.1294H53.3735C57.2118 37.1294 60.3353 40.2529 60.3353 44.0912C60.3353 47.9294 57.2118 51.0529 53.3735 51.0529H20.8853C9.37054 51.0529 0 60.4235 0 71.9382C0 83.453 9.37054 92.8235 20.8853 92.8235H65.4081C63.2871 90.1409 61.2635 87.036 59.6113 83.5412ZM13.9235 0C6.24702 0 0 6.24702 0 13.9235C0 28.7196 13.9235 37.1294 13.9235 37.1294C13.9235 37.1294 27.8471 28.715 27.8471 13.9235C27.8471 6.24702 21.6 0 13.9235 0ZM13.9235 20.8853C10.0806 20.8853 6.96176 17.7664 6.96176 13.9235C6.96176 10.0806 10.0806 6.96177 13.9235 6.96177C17.7664 6.96177 20.8853 10.0806 20.8853 13.9235C20.8853 17.7664 17.7664 20.8853 13.9235 20.8853Z" fill="#043175"/>
<path d="M78.9001 55.6941C71.2236 55.6941 64.9766 61.9411 64.9766 69.6176C64.9766 84.4137 78.9001 92.8235 78.9001 92.8235C78.9001 92.8235 92.8236 84.409 92.8236 69.6176C92.8236 61.9411 86.5766 55.6941 78.9001 55.6941ZM78.9001 76.5794C75.0572 76.5794 71.9383 73.4605 71.9383 69.6176C71.9383 65.7747 75.0572 62.6559 78.9001 62.6559C82.743 62.6559 85.8619 65.7747 85.8619 69.6176C85.8619 73.4605 82.743 76.5794 78.9001 76.5794Z" fill="#043175"/>
</svg>
