<svg width="34" height="34" viewBox="0 0 34 34" fill="none" xmlns="http://www.w3.org/2000/svg">
<path d="M24.8746 17C24.8746 18.5518 24.4159 20.0688 23.5564 21.3591C22.697 22.6494 21.4754 23.655 20.0461 24.2489C18.6169 24.8428 17.0442 24.9981 15.5269 24.6954C14.0097 24.3926 12.616 23.6454 11.5221 22.5481C10.4282 21.4508 9.68324 20.0527 9.38143 18.5307C9.07963 17.0087 9.23452 15.4311 9.82653 13.9974C10.4185 12.5637 11.4211 11.3383 12.7074 10.4762C13.9936 9.61402 15.5059 9.15385 17.0529 9.15385C19.1267 9.15601 21.1149 9.98335 22.5813 11.4543C24.0477 12.9253 24.8725 14.9197 24.8746 17ZM11.8384 17C11.8384 18.0345 12.1442 19.0459 12.7172 19.9061C13.2902 20.7663 14.1046 21.4367 15.0574 21.8326C16.0102 22.2285 17.0587 22.3321 18.0702 22.1303C19.0817 21.9284 20.0108 21.4302 20.7401 20.6987C21.4694 19.9672 21.966 19.0351 22.1672 18.0205C22.3684 17.0058 22.2651 15.9541 21.8705 14.9983C21.4758 14.0425 20.8074 13.2255 19.9499 12.6508C19.0924 12.076 18.0842 11.7692 17.0529 11.7692C15.6699 11.7692 14.3436 12.3203 13.3657 13.3013C12.3878 14.2822 11.8384 15.6127 11.8384 17ZM34 9.15385L34 24.8462C33.9974 27.2731 33.0352 29.5999 31.3244 31.316C29.6136 33.0321 27.294 33.9974 24.8746 34L9.23114 34C6.81174 33.9974 4.49216 33.0321 2.78139 31.316C1.07061 29.5999 0.108356 27.2731 0.10577 24.8462L0.10577 9.15385C0.108356 6.72689 1.07061 4.40008 2.78139 2.68397C4.49216 0.96785 6.81174 0.00259781 9.23114 0L24.8746 0C27.294 0.00259781 29.6136 0.96785 31.3244 2.68397C33.0352 4.40008 33.9974 6.72689 34 9.15385ZM9.23114 2.61539C7.50243 2.61539 5.84452 3.30426 4.62213 4.53046C3.39975 5.75665 2.71302 7.41974 2.71302 9.15385L2.71302 24.8462C2.71302 26.5803 3.39975 28.2433 4.62213 29.4695C5.84452 30.6957 7.50243 31.3846 9.23114 31.3846L24.8746 31.3846C26.6033 31.3846 28.2613 30.6957 29.4836 29.4695C30.706 28.2433 31.3928 26.5803 31.3928 24.8462L31.3928 9.15385C31.3928 7.41974 30.706 5.75665 29.4836 4.53046C28.2613 3.30426 26.6033 2.61539 24.8746 2.61539L9.23114 2.61539ZM25.5264 6.53846C25.1397 6.53846 24.7616 6.65351 24.4401 6.86904C24.1185 7.08458 23.8679 7.39093 23.7199 7.74935C23.5719 8.10778 23.5331 8.50218 23.6086 8.88268C23.684 9.26318 23.8703 9.61269 24.1437 9.88702C24.4172 10.1613 24.7656 10.3482 25.145 10.4238C25.5243 10.4995 25.9174 10.4607 26.2748 10.3122C26.6321 10.1638 26.9375 9.91235 27.1523 9.58977C27.3672 9.2672 27.4819 8.88796 27.4819 8.5C27.4819 7.97977 27.2759 7.48084 26.9091 7.11298C26.5424 6.74512 26.0451 6.53846 25.5264 6.53846Z" fill="white"/>
</svg>
