<svg width="259" height="118" viewBox="0 0 259 118" fill="none" xmlns="http://www.w3.org/2000/svg">
<path d="M27.7072 117.174C21.9261 117.174 17.261 115.344 13.7118 111.685C10.1627 107.99 8.3881 103.142 8.3881 97.1413C8.3881 91.1407 10.1627 86.3109 13.7118 82.652C17.261 78.9565 21.9261 77.1087 27.7072 77.1087C32.2076 77.1087 36.0678 78.2796 39.2876 80.6213C42.5441 82.9264 44.5748 85.9816 45.3797 89.7869L38.0802 92.4762C37.5314 90.2077 36.3239 88.3782 34.4579 86.9878C32.5918 85.5974 30.4148 84.9022 27.9267 84.9022C24.6337 84.9022 21.9627 86.0365 19.9137 88.305C17.9013 90.537 16.8951 93.4824 16.8951 97.1413C16.8951 100.8 17.9013 103.764 19.9137 106.032C21.9627 108.264 24.6337 109.38 27.9267 109.38C30.4148 109.38 32.5918 108.685 34.4579 107.295C36.3239 105.904 37.5314 104.093 38.0802 101.861L45.3797 104.496C44.5748 108.301 42.5441 111.374 39.2876 113.716C36.0678 116.021 32.2076 117.174 27.7072 117.174ZM72.3242 116.515L70.0191 109.71H54.0479L51.7428 116.515H43.2907L57.341 77.7674H66.7261L80.7763 116.515H72.3242ZM56.4628 102.575H67.6042L62.061 86.2194L56.4628 102.575ZM103.947 116.515L97.7997 103.179H90.0611V116.515H82.0481V77.7674H98.6778C102.666 77.7674 105.886 78.9382 108.337 81.2799C110.789 83.6216 112.015 86.6951 112.015 90.5004C112.015 93.0616 111.447 95.3118 110.313 97.2511C109.179 99.1537 107.587 100.617 105.538 101.642L112.893 116.515H103.947ZM90.0611 85.2864V95.6594H98.0741C99.7572 95.6594 101.111 95.1838 102.135 94.2325C103.197 93.2811 103.727 92.0371 103.727 90.5004C103.727 88.927 103.197 87.6647 102.135 86.7134C101.111 85.7621 99.7572 85.2864 98.0741 85.2864H90.0611Z" fill="black"/>
<path d="M144.981 116.515L138.834 103.179H131.095V116.515H123.082V77.7674H139.712C143.7 77.7674 146.92 78.9382 149.372 81.2799C151.823 83.6216 153.049 86.6951 153.049 90.5004C153.049 93.0616 152.482 95.3118 151.347 97.2511C150.213 99.1537 148.621 100.617 146.572 101.642L153.927 116.515H144.981ZM131.095 85.2864V95.6594H139.108C140.791 95.6594 142.145 95.1838 143.17 94.2325C144.231 93.2811 144.761 92.0371 144.761 90.5004C144.761 88.927 144.231 87.6647 143.17 86.7134C142.145 85.7621 140.791 85.2864 139.108 85.2864H131.095ZM164.797 108.996H183.842V116.515H156.784V77.7674H183.128V85.2864H164.797V93.5739H180.329V100.654H164.797V108.996ZM211.222 77.7674H219.235V116.515H209.85L194.372 89.6771V116.515H186.359V77.7674H195.744L211.222 104.551V77.7674ZM253.347 77.7674V85.2864H241.273V116.515H233.26V85.2864H221.185V77.7674H253.347Z" fill="white"/>
<path d="M61.5972 10.1008L52.1572 0.551031H13.2995L6.6037 15.6989H15.4949V77.3882H52.1572L61.5972 67.9482V48.5194L52.1572 38.9696L61.5972 29.5296V10.1008ZM43.4856 15.6989V29.6394L33.4967 32.6031V15.6989H43.4856ZM33.4967 62.3501V48.4096L43.4856 45.4459V62.3501H33.4967ZM123.556 40.8357V10.1008C119.933 6.36871 117.848 4.28313 114.116 0.551031H75.2581L68.5623 15.6989H77.4534V77.3882H95.4553V55.6543L96.6627 55.325L104.456 77.3882H123.556L113.896 50.3855L114.116 50.2757C117.848 46.6534 119.933 44.5678 123.556 40.8357ZM105.444 15.6989V37.1036L95.4553 39.9575V15.6989H105.444ZM176.074 0.551031H137.217L130.521 15.6989H139.412V67.9482C143.034 71.6803 145.12 73.7659 148.852 77.3882H176.074L185.514 67.9482V10.1008L176.074 0.551031ZM157.414 62.3501V15.6989H167.403V62.3501H157.414ZM251.546 26.7855V10.1008C247.924 6.36871 245.838 4.28313 242.106 0.551031H203.249L196.553 15.6989H205.444V32.2738L223.446 46.6534L233.435 54.4468V62.2403H223.446V51.2636H205.444V67.9482C209.066 71.6803 211.152 73.6562 214.884 77.3882H242.106C245.838 73.6562 247.924 71.6803 251.546 67.9482V45.7752L233.435 31.3957L223.446 23.6022V15.6989H233.435V26.7855H251.546Z" fill="#043175"/>
</svg>
