<svg width="46" height="40" viewBox="0 0 46 40" fill="none" xmlns="http://www.w3.org/2000/svg">
<path d="M2.01922 7.33605H43.5931C44.4763 7.33605 45.1921 6.6202 45.1921 5.73705V1.73956C45.1921 0.856415 44.4763 0.140564 43.5931 0.140564H2.01922C1.13608 0.140564 0.420227 0.856415 0.420227 1.73956V5.73705C0.420227 6.6202 1.13608 7.33605 2.01922 7.33605ZM2.01922 23.326H43.5931C44.4763 23.326 45.1921 22.6102 45.1921 21.727V17.7295C45.1921 16.8464 44.4763 16.1305 43.5931 16.1305H2.01922C1.13608 16.1305 0.420227 16.8464 0.420227 17.7295V21.727C0.420227 22.6102 1.13608 23.326 2.01922 23.326ZM2.01922 39.316H43.5931C44.4763 39.316 45.1921 38.6001 45.1921 37.717V33.7195C45.1921 32.8363 44.4763 32.1205 43.5931 32.1205H2.01922C1.13608 32.1205 0.420227 32.8363 0.420227 33.7195V37.717C0.420227 38.6001 1.13608 39.316 2.01922 39.316Z" fill="black"/>
</svg>
