<svg width="41" height="34" viewBox="0 0 41 34" fill="none" xmlns="http://www.w3.org/2000/svg">
<path fill-rule="evenodd" clip-rule="evenodd" d="M26.0515 0.154535C27.0145 -0.0119409 28.0909 -0.0674325 29.1049 0.106697C30.9111 0.415288 32.5847 1.26366 33.9101 2.5426C34.7728 2.56173 35.6222 2.38952 36.3733 2.14459C37.0991 1.90515 37.796 1.58355 38.4505 1.18592L38.4675 1.17444C38.7399 0.990844 39.0667 0.90818 39.3925 0.940454C39.7183 0.972729 40.0231 1.11796 40.2551 1.35152C40.4871 1.58509 40.6322 1.89262 40.6656 2.222C40.6991 2.55137 40.619 2.88232 40.4388 3.15875C40.0472 3.7615 39.5004 4.8369 38.8894 6.04241L38.5961 6.61838C38.2462 7.30724 37.8867 8.00376 37.5519 8.60078C37.3419 8.97582 37.1167 9.35661 36.8897 9.68574V10.21C36.913 13.3456 36.3186 16.4544 35.1412 19.3551C33.9638 22.2558 32.227 24.8903 30.0322 27.1048C27.8374 29.3192 25.2285 31.0694 22.3578 32.253C19.487 33.4367 16.412 34.0302 13.3121 33.9988C8.81984 34.0029 4.42216 32.6939 0.648265 30.2292C0.37852 30.0527 0.175969 29.7889 0.0737465 29.4808C-0.0284761 29.1728 -0.0243189 28.8388 0.0855381 28.5334C0.195395 28.2281 0.404448 27.9695 0.6785 27.7999C0.952552 27.6304 1.27538 27.5599 1.59417 27.6C4.20084 27.9152 6.84277 27.4898 9.22385 26.3716C8.06215 25.8374 7.02316 25.0644 6.17306 24.1017C5.32295 23.1391 4.68037 22.0079 4.28622 20.7803C4.21112 20.5453 4.19726 20.2946 4.24597 20.0526C4.29469 19.8105 4.40434 19.5853 4.56432 19.3987L4.58324 19.3796C3.62292 18.5142 2.85329 17.4542 2.32432 16.2684C1.79535 15.0826 1.51887 13.7976 1.51282 12.4967V12.3972C1.51268 12.0821 1.61505 11.7758 1.80411 11.5254C1.99318 11.275 2.25845 11.0946 2.559 11.0118C1.91838 9.71891 1.58601 8.29225 1.5885 6.84609C1.58742 5.20653 2.01141 3.59535 2.81817 2.17329C2.93279 1.97142 3.09424 1.80078 3.2886 1.6761C3.48295 1.55141 3.70438 1.47641 3.93377 1.45758C4.16317 1.43875 4.39366 1.47664 4.60535 1.56799C4.81704 1.65934 5.00358 1.80141 5.14889 1.98194C8.45803 6.10543 13.1989 8.79531 18.4029 9.50204C18.3577 7.78023 18.7872 6.07968 19.6432 4.5907C20.4992 3.10171 21.7479 1.88305 23.2498 1.07111C24.0103 0.661615 25.0167 0.334405 26.0534 0.154535H26.0515ZM4.71566 14.5977C5.08303 15.6435 5.71253 16.5749 6.54256 17.3007C7.3726 18.0266 8.37472 18.522 9.45087 18.7386C9.76092 18.801 10.0415 18.9665 10.248 19.2086C10.4545 19.4507 10.5751 19.7556 10.5908 20.075C10.6064 20.3944 10.5162 20.7099 10.3343 20.9715C10.1525 21.2331 9.8895 21.4257 9.58708 21.5189C9.07251 21.6777 8.54469 21.7868 8.00931 21.8499C8.59056 22.6083 9.33236 23.2254 10.1803 23.6559C11.0281 24.0863 11.9606 24.3192 12.9091 24.3375C13.2017 24.3431 13.4854 24.44 13.7214 24.6151C13.9574 24.7901 14.1341 25.0346 14.2273 25.3152C14.3205 25.5958 14.3257 25.8986 14.2421 26.1823C14.1585 26.4659 13.9903 26.7165 13.7604 26.8997C11.7877 28.4696 9.49527 29.5774 7.04827 30.1431C9.07415 30.799 11.1887 31.1315 13.3158 31.1286H13.3329C16.0571 31.1576 18.7597 30.6373 21.2829 29.5979C23.806 28.5585 26.0991 27.0209 28.0281 25.0749C29.9571 23.129 31.4833 20.8137 32.5176 18.2644C33.5519 15.7151 34.0735 12.9828 34.052 10.2273V9.20353C34.0517 8.85506 34.1768 8.51839 34.4039 8.25634C34.5363 8.10518 34.7633 7.75692 35.0849 7.18478C35.3876 6.64517 35.7244 5.99457 36.0743 5.30762L36.1368 5.18133C35.1486 5.40627 34.131 5.46894 33.1231 5.36694C32.7823 5.32939 32.4664 5.1683 32.234 4.91344C31.2826 3.86996 30.0157 3.17541 28.632 2.93869C27.9341 2.83884 27.2248 2.855 26.532 2.98653C25.8568 3.09284 25.2013 3.30119 24.5873 3.6046C23.3494 4.27357 22.3661 5.33923 21.7915 6.63444C21.217 7.92964 21.0838 9.38109 21.4128 10.7611C21.4646 10.9781 21.4656 11.2044 21.4158 11.4218C21.3659 11.6393 21.2666 11.842 21.1258 12.0139C20.9849 12.1857 20.8063 12.322 20.6043 12.4117C20.4022 12.5015 20.1822 12.5424 19.9618 12.5311C14.1493 12.2338 8.65415 9.75987 4.5454 5.59082C4.46558 6.005 4.42566 6.42603 4.42622 6.848V6.85183C4.42409 7.90569 4.67965 8.94372 5.17013 9.87351C5.66061 10.8033 6.3708 11.596 7.23745 12.181C7.49195 12.3542 7.68408 12.6062 7.78503 12.8992C7.88599 13.1923 7.89034 13.5105 7.79743 13.8062C7.70452 14.1019 7.51936 14.3592 7.26969 14.5395C7.02003 14.7198 6.71931 14.8134 6.41262 14.8063C5.84168 14.7903 5.27351 14.7217 4.71566 14.5977Z" fill="white"/>
</svg>
