<svg width="93" height="93" viewBox="0 0 93 93" fill="none" xmlns="http://www.w3.org/2000/svg">
<path d="M86.7256 68.0629H85.4592V59.9665C85.4571 56.8222 84.5341 53.7473 82.8042 51.1217C81.0743 48.4961 78.6132 46.4346 75.7249 45.1919L72.0439 29.839C71.5887 27.9191 70.4977 26.2095 68.9482 24.9879C67.3986 23.7664 65.4816 23.1046 63.5084 23.1102H60.7688C62.0542 21.8606 63.2704 20.5416 64.4118 19.1591C65.4508 17.7941 66.1666 16.211 66.5051 14.5293C66.8437 12.8475 66.7962 11.1108 66.3662 9.4501C65.8836 7.55443 64.9771 5.79299 63.7151 4.29842C62.453 2.80386 60.8683 1.61512 59.0803 0.821747C56.938 -0.0255136 54.5932 -0.221096 52.3402 0.259547C50.0872 0.740191 48.0263 1.87564 46.4164 3.52338C44.8073 1.87422 42.7464 0.737777 40.493 0.257056C38.2397 -0.223666 35.8944 -0.0271959 33.7524 0.821747C31.9641 1.61418 30.3789 2.80204 29.1161 4.29587C27.8533 5.7897 26.9459 7.55057 26.4622 9.44588C26.0323 11.1066 25.9848 12.8433 26.3234 14.5251C26.6619 16.2068 27.3777 17.7898 28.4167 19.1549C29.5581 20.5373 30.7743 21.8563 32.0597 23.106H29.3243C27.3506 23.1006 25.4331 23.763 23.8834 24.9853C22.3338 26.2077 21.2432 27.9183 20.7888 29.839L17.1121 45.2046C14.2238 46.4473 11.7627 48.5087 10.0328 51.1344C8.30284 53.76 7.37984 56.8348 7.37772 59.9791V68.0756H6.11133C4.49245 68.0756 2.93987 68.7187 1.79515 69.8634C0.650423 71.0081 0.00732422 72.5607 0.00732422 74.1796C0.00732422 75.7985 0.650423 77.3511 1.79515 78.4958C2.93987 79.6405 4.49245 80.2836 6.11133 80.2836H11.599V85.3914C11.645 87.3084 12.4388 89.1314 13.8109 90.4709C15.1829 91.8105 17.0244 92.5604 18.942 92.5604C20.8595 92.5604 22.701 91.8105 24.0731 90.4709C25.4452 89.1314 26.239 87.3084 26.285 85.3914V80.2836H66.5309V85.3914C66.5768 87.3084 67.3707 89.1314 68.7427 90.4709C70.1148 91.8105 71.9563 92.5604 73.8738 92.5604C75.7914 92.5604 77.6329 91.8105 79.005 90.4709C80.377 89.1314 81.1708 87.3084 81.2168 85.3914V80.2836H86.7045C88.3234 80.2836 89.876 79.6405 91.0207 78.4958C92.1654 77.3511 92.8085 75.7985 92.8085 74.1796C92.8085 72.5607 92.1654 71.0081 91.0207 69.8634C89.876 68.7187 88.3234 68.0756 86.7045 68.0756L86.7256 68.0629ZM31.8655 16.4997C31.2272 15.6521 30.7895 14.6708 30.5855 13.6295C30.3815 12.5883 30.4165 11.5143 30.6878 10.4885C31.0151 9.22967 31.6235 8.06136 32.4672 7.0714C33.311 6.08145 34.3681 5.29559 35.5592 4.77289C36.2971 4.43017 37.101 4.25296 37.9146 4.25367C40.5838 4.568 43.028 5.90205 44.7363 7.97686C44.9474 8.21662 45.2072 8.40867 45.4984 8.54022C45.7895 8.67177 46.1053 8.73981 46.4248 8.73981C46.7443 8.73981 47.0601 8.67177 47.3513 8.54022C47.6424 8.40867 47.9022 8.21662 48.1133 7.97686C48.1598 7.9262 52.5879 2.61158 57.2904 4.77289C58.4815 5.29559 59.5387 6.08145 60.3824 7.0714C61.2261 8.06136 61.8345 9.22967 62.1618 10.4885C62.4328 11.5141 62.468 12.5877 62.2647 13.6287C62.0615 14.6698 61.6251 15.6514 60.9883 16.4997C58.7383 19.4166 49.1686 28.18 46.4332 30.6495C43.6514 28.1505 34.1366 19.4461 31.8655 16.4997ZM25.0228 30.8521C25.2547 29.8871 25.8057 29.0286 26.5864 28.4157C27.367 27.8028 28.3318 27.4714 29.3243 27.4751H36.5512C39.1684 29.9488 42.6636 33.1569 44.9642 35.2169C45.3627 35.5759 45.88 35.7745 46.4164 35.7745C46.9527 35.7745 47.47 35.5759 47.8685 35.2169C50.1733 33.1527 53.5293 30.0754 56.2815 27.4751H63.5084C64.5009 27.4714 65.4657 27.8028 66.2464 28.4157C67.027 29.0286 67.578 29.8871 67.8099 30.8521L70.9506 43.9846C70.4292 43.9257 69.905 43.8961 69.3803 43.896H23.4525C22.9278 43.8961 22.4035 43.9257 21.8821 43.9846L25.0228 30.8521ZM11.7299 59.9791C11.7376 57.5474 12.5028 55.1785 13.919 53.2017C15.3352 51.2248 17.3322 49.7384 19.6322 48.9489H19.6617C20.2683 48.7391 20.889 48.5726 21.5191 48.4507C22.157 48.3324 22.8037 48.2675 23.4525 48.2566H69.3803C70.029 48.2675 70.6757 48.3324 71.3136 48.4507C71.9438 48.5726 72.5644 48.7391 73.171 48.9489H73.2217C75.5164 49.7414 77.5078 51.2282 78.9199 53.203C80.332 55.1778 81.0948 57.5429 81.1028 59.9707V68.0671H11.7299V59.9791ZM21.9328 85.3787C21.9037 86.1525 21.5759 86.8849 21.0182 87.422C20.4605 87.9592 19.7163 88.2592 18.942 88.2592C18.1677 88.2592 17.4235 87.9592 16.8658 87.422C16.3081 86.8849 15.9803 86.1525 15.9512 85.3787V80.2709H21.9328V85.3787ZM76.8646 85.3787C76.8356 86.1525 76.5077 86.8849 75.95 87.422C75.3923 87.9592 74.6482 88.2592 73.8738 88.2592C73.0995 88.2592 72.3554 87.9592 71.7976 87.422C71.2399 86.8849 70.9121 86.1525 70.883 85.3787V80.2709H76.8646V85.3787ZM86.7172 75.9188H6.10711C5.87706 75.9188 5.64925 75.8735 5.43671 75.7854C5.22417 75.6974 5.03104 75.5683 4.86837 75.4057C4.7057 75.243 4.57666 75.0499 4.48862 74.8373C4.40058 74.6248 4.35527 74.397 4.35527 74.1669C4.35527 73.9369 4.40058 73.7091 4.48862 73.4965C4.57666 73.284 4.7057 73.0909 4.86837 72.9282C5.03104 72.7655 5.22417 72.6365 5.43671 72.5484C5.64925 72.4604 5.87706 72.4151 6.10711 72.4151H86.7341C86.9641 72.4151 87.1919 72.4604 87.4045 72.5484C87.617 72.6365 87.8101 72.7655 87.9728 72.9282C88.1355 73.0909 88.2645 73.284 88.3525 73.4965C88.4406 73.7091 88.4859 73.9369 88.4859 74.1669C88.4859 74.397 88.4406 74.6248 88.3525 74.8373C88.2645 75.0499 88.1355 75.243 87.9728 75.4057C87.8101 75.5683 87.617 75.6974 87.4045 75.7854C87.1919 75.8735 86.9641 75.9188 86.7341 75.9188H86.7172Z" fill="#043175"/>
<path d="M24.1193 50.6628C22.6372 50.6628 21.1883 51.1024 19.9561 51.9259C18.7238 52.7494 17.7634 53.9199 17.1964 55.2893C16.6294 56.6586 16.4813 58.1654 16.7707 59.619C17.0602 61.0726 17.7742 62.4077 18.8226 63.4554C19.8709 64.5031 21.2064 65.2164 22.6601 65.505C24.1138 65.7937 25.6205 65.6447 26.9896 65.0769C28.3586 64.5091 29.5286 63.5481 30.3514 62.3154C31.1742 61.0826 31.6129 59.6336 31.6121 58.1514C31.6088 56.1656 30.8181 54.2622 29.4136 52.8584C28.009 51.4546 26.1051 50.6651 24.1193 50.6628Z" fill="#043175"/>
<path d="M68.713 50.6628C67.231 50.6637 65.7826 51.1039 64.5509 51.928C63.3192 52.752 62.3595 53.9227 61.7931 55.2922C61.2268 56.6616 61.0792 58.1683 61.3692 59.6216C61.6591 61.0749 62.3735 62.4096 63.4219 63.4569C64.4704 64.5042 65.8059 65.217 67.2596 65.5053C68.7132 65.7936 70.2196 65.6444 71.5885 65.0765C72.9573 64.5086 74.127 63.5476 74.9496 62.3149C75.7722 61.0823 76.2108 59.6334 76.21 58.1514C76.2067 56.1649 75.4154 54.2608 74.01 52.8569C72.6045 51.453 70.6995 50.664 68.713 50.6628Z" fill="#043175"/>
<path d="M57.8389 55.9772H34.9932C34.4327 56.0019 33.9033 56.2419 33.5153 56.6473C33.1274 57.0527 32.9109 57.5922 32.9109 58.1533C32.9109 58.7144 33.1274 59.2538 33.5153 59.6592C33.9033 60.0646 34.4327 60.3046 34.9932 60.3293H57.8389C58.3995 60.3046 58.9289 60.0646 59.3168 59.6592C59.7047 59.2538 59.9213 58.7144 59.9213 58.1533C59.9213 57.5922 59.7047 57.0527 59.3168 56.6473C58.9289 56.2419 58.3995 56.0019 57.8389 55.9772Z" fill="#043175"/>
<path d="M10.155 33.44C10.5547 33.7963 11.0716 33.9932 11.6071 33.9932C12.1426 33.9932 12.6595 33.7963 13.0592 33.44C16.1141 30.7633 19.0305 27.9328 21.7973 24.9594C22.4331 24.1244 22.8717 23.1563 23.08 22.1277C23.2884 21.099 23.2612 20.0366 23.0004 19.02C22.7118 17.8823 22.1691 16.8248 21.4131 15.927C20.6571 15.0292 19.7075 14.3143 18.6356 13.8362C17.4853 13.3417 16.2213 13.1731 14.9816 13.3488C13.742 13.5245 12.5746 14.0378 11.6071 14.8325C10.6394 14.0399 9.47276 13.5279 8.23426 13.3522C6.99576 13.1766 5.73281 13.344 4.58284 13.8362C3.51039 14.3136 2.5603 15.0281 1.80421 15.9261C1.04811 16.824 0.505751 17.8819 0.218013 19.02C-0.042747 20.0366 -0.0699696 21.099 0.138386 22.1277C0.346742 23.1563 0.785269 24.1244 1.42109 24.9594C4.18658 27.9326 7.10165 30.7632 10.155 33.44ZM7.15784 17.6227C8.23295 17.7878 9.21126 18.3385 9.91013 19.172C10.1217 19.4111 10.3816 19.6026 10.6727 19.7338C10.9637 19.8649 11.2794 19.9328 11.5987 19.9328C11.9179 19.9328 12.2336 19.8649 12.5247 19.7338C12.8157 19.6026 13.0757 19.4111 13.2872 19.172C13.2872 19.1466 15.153 17.0233 16.8204 17.7916C17.2492 17.9487 17.6372 18.1999 17.9561 18.5267C18.2751 18.8535 18.5167 19.2476 18.6633 19.6801C18.8098 20.1126 18.8577 20.5724 18.8032 21.0257C18.7487 21.4791 18.5934 21.9145 18.3485 22.2999C16.2133 24.6111 13.9588 26.8091 11.5944 28.8852C9.22866 26.8106 6.97416 24.6124 4.84034 22.2999C4.5688 21.8551 4.41436 21.3487 4.39143 20.828C4.36851 20.3073 4.47785 19.7893 4.70925 19.3222C4.94065 18.8552 5.28657 18.4544 5.71474 18.1573C6.14292 17.8601 6.63939 17.6762 7.15784 17.6227Z" fill="#043175"/>
<path d="M79.7643 33.4396C80.1641 33.796 80.6809 33.9929 81.2165 33.9929C81.752 33.9929 82.2688 33.796 82.6686 33.4396C85.7219 30.7628 88.637 27.9323 91.4025 24.959C92.0383 24.124 92.4768 23.1559 92.6852 22.1273C92.8935 21.0987 92.8663 20.0363 92.6055 19.0197C92.3187 17.8824 91.7776 16.8251 91.023 15.9272C90.2685 15.0293 89.32 14.3142 88.2492 13.8359C87.0997 13.3413 85.8362 13.1726 84.5972 13.3483C83.3582 13.524 82.1915 14.0374 81.2249 14.8321C80.2565 14.0391 79.0892 13.527 77.85 13.3513C76.6107 13.1757 75.347 13.3433 74.1964 13.8359C73.1245 14.314 72.1749 15.0288 71.4189 15.9267C70.6629 16.8245 70.1202 17.882 69.8316 19.0197C69.5705 20.0365 69.5435 21.0993 69.7526 22.1281C69.9617 23.1569 70.4015 24.1248 71.0389 24.959C73.8006 27.9331 76.7129 30.7637 79.7643 33.4396ZM76.8094 17.6224C77.8855 17.788 78.865 18.3385 79.5659 19.1716C79.7775 19.4108 80.0374 19.6023 80.3285 19.7334C80.6195 19.8646 80.9352 19.9324 81.2545 19.9324C81.5737 19.9324 81.8894 19.8646 82.1805 19.7334C82.4716 19.6023 82.7315 19.4108 82.943 19.1716C82.943 19.1463 84.8046 17.023 86.472 17.7913C86.9011 17.9479 87.2896 18.1988 87.609 18.5254C87.9284 18.852 88.1704 19.2461 88.3175 19.6786C88.4645 20.1111 88.5126 20.5711 88.4584 21.0247C88.4043 21.4782 88.2491 21.9139 88.0043 22.2996C85.868 24.6096 83.6136 26.8077 81.2502 28.8849C78.8848 26.8099 76.6303 24.6118 74.4961 22.2996C74.227 21.8546 74.0744 21.3489 74.0524 20.8293C74.0305 20.3097 74.1398 19.7929 74.3704 19.3267C74.6009 18.8606 74.9453 18.46 75.3716 18.1621C75.7979 17.8643 76.2924 17.6786 76.8094 17.6224Z" fill="#043175"/>
</svg>
